Coordinates
version=1
nRows=8
nColumns=46
inDegrees=yes

Units are S.I. units (second, meters, Newtons, ...)
Angles are in degrees.

endheader
time	pelvis_tilt	pelvis_list	pelvis_rotation	pelvis_tx	pelvis_ty	pelvis_tz	bb_angle	bb_tx	bb_ty	bb_tz	hip_flexion_r	hip_adduction_r	hip_rotation_r	knee_angle_r	knee_angle_r_beta	ankle_angle_r	subtalar_angle_r	mtp_angle_r	crank_angle_r	hip_flexion_l	hip_adduction_l	hip_rotation_l	knee_angle_l	knee_angle_l_beta	ankle_angle_l	subtalar_angle_l	mtp_angle_l	crank_angle_l	lumbar_extension	lumbar_bending	lumbar_rotation	arm_flex_r	arm_add_r	arm_rot_r	elbow_flex_r	pro_sup_r	wrist_flex_r	wrist_dev_r	arm_flex_l	arm_add_l	arm_rot_l	elbow_flex_l	pro_sup_l	wrist_flex_l	wrist_dev_l
      0.00500000	    -19.91803622	     -5.40437846	     -1.56971204	      0.11416557	      1.13980704	     -0.23487163	      0.00000000	      0.50000000	      0.00000000	      0.25000000	     91.68038533	     -6.88173508	     -6.12468457	     94.50225737	      1.64937554	     20.37348345	     -2.43687165	      0.00000000	      0.00000000	     49.76167594	    -13.06130787	     -2.53085400	     56.83981834	      0.99204198	     21.33084904	      5.82428538	      0.00000000	      0.00000000	    -45.66350351	      5.77501509	      8.07035076	     89.40687773	    -10.33755656	     36.01854578	     29.75486526	     23.45207266	      0.00000000	      0.00000000	     89.48838115	     -0.16658728	     37.76013690	     20.44032582	     21.75285458	      0.00000000	      0.00000000
      0.01000000	    -19.93145462	     -5.41607003	     -1.57202861	      0.11415216	      1.13979209	     -0.23487925	      0.00000000	      0.50000000	      0.00000000	      0.25000000	     91.70090786	     -6.88409187	     -6.13400844	     94.52157382	      1.64971268	     20.38328301	     -2.42073471	      0.00000000	      0.00000000	     49.76002108	    -13.06275309	     -2.51676332	     56.80486965	      0.99143201	     21.34562457	      5.78797815	      0.00000000	      0.00000000	    -45.65309530	      5.77746483	      8.11259633	     89.40353341	    -10.27525926	     35.55016327	     29.44244946	     24.86877343	      0.00000000	      0.00000000	     89.47784023	     -0.17528544	     37.06792523	     20.39441182	     23.13941414	      0.00000000	      0.00000000
      0.01500000	    -19.84728464	     -5.45025599	     -1.59766400	      0.11422045	      1.13994658	     -0.23477985	      0.00000000	      0.50000000	      0.00000000	      0.25000000	     91.59849295	     -6.85480884	     -6.16185542	     94.54622315	      1.65014289	     20.51196781	     -2.17267369	      0.00000000	      0.00000000	     49.63570476	    -13.14671962	     -2.54936857	     56.76333070	      0.99070702	     21.47222242	      6.13991963	      0.00000000	      0.00000000	    -45.78854189	      5.76766110	      8.21260286	     89.39506140	    -10.31737473	     34.95883398	     29.55975433	     25.57367428	      0.00000000	      0.00000000	     89.46828566	     -0.12202630	     36.30040423	     20.58361404	     23.81418894	      0.00000000	      0.00000000
      0.02000000	    -20.18624690	     -5.66220949	     -1.73571250	      0.11381359	      1.13891301	     -0.23401628	      0.00000000	      0.50000000	      0.00000000	      0.25000000	     92.00609725	     -6.57939109	     -6.34037119	     94.54303189	      1.65008719	     20.28119989	     -2.68887038	      0.00000000	      0.00000000	     50.10271125	    -13.29314068	     -2.20494928	     56.85970174	      0.99238901	     21.48284822	      6.09924189	      0.00000000	      0.00000000	    -45.36209972	      5.85776989	      8.41321496	     89.38746070	    -10.09237463	     34.89444838	     29.00142784	     26.46488464	      0.00000000	      0.00000000	     89.49058026	      0.20796483	     35.82982041	     19.86752337	     24.56635899	      0.00000000	      0.00000000
      0.02500000	    -20.13920287	     -5.55433685	     -1.69940467	      0.11379253	      1.13925573	     -0.23441880	      0.00000000	      0.50000000	      0.00000000	      0.25000000	     91.96168455	     -6.62013031	     -6.20808218	     94.54065135	      1.65004564	     20.26443870	     -2.73150006	      0.00000000	      0.00000000	     50.02652398	    -13.27423314	     -2.42100725	     56.84385336	      0.99211240	     21.43390345	      5.62327942	      0.00000000	      0.00000000	    -45.39528072	      5.76066578	      8.26876240	     89.39067393	    -10.07739422	     35.04386635	     28.80795686	     27.31943177	      0.00000000	      0.00000000	     89.48277223	      0.08140410	     35.88214983	     19.79433121	     25.29909796	      0.00000000	      0.00000000
      0.03000000	    -20.14450779	     -5.56416311	     -1.68889262	      0.11378983	      1.13930772	     -0.23443439	      0.00000000	      0.50000000	      0.00000000	      0.25000000	     91.96154482	     -6.63821007	     -6.22935122	     94.54794736	      1.65017298	     20.27534413	     -2.74450950	      0.00000000	      0.00000000	     50.01166180	    -13.27728423	     -2.41262789	     56.79435000	      0.99124840	     21.47726958	      5.79850187	      0.00000000	      0.00000000	    -45.39542473	      5.77193722	      8.28543841	     89.39127494	    -10.13788136	     35.09189081	     28.60348897	     28.44187151	      0.00000000	      0.00000000	     89.48141298	      0.05184784	     35.88724661	     19.67079126	     26.30137168	      0.00000000	      0.00000000
      0.03500000	    -20.13126016	     -5.55696071	     -1.69879936	      0.11378168	      1.13931455	     -0.23441435	      0.00000000	      0.50000000	      0.00000000	      0.25000000	     91.95433260	     -6.62807918	     -6.21751158	     94.56228012	      1.65042314	     20.30257975	     -2.70777728	      0.00000000	      0.00000000	     49.98937978	    -13.28280709	     -2.41870390	     56.78387711	      0.99106562	     21.50057643	      5.85429156	      0.00000000	      0.00000000	    -45.39467050	      5.77421752	      8.27963460	     89.39219123	    -10.38704451	     36.18540442	     29.07413272	     26.53440723	      0.00000000	      0.00000000	     89.49774522	     -0.73666190	     40.23296274	     20.22406837	     22.88933232	      0.00000000	      0.00000000
      0.04000000	    -20.13124421	     -5.55650881	     -1.71056479	      0.11379089	      1.13936471	     -0.23439646	      0.00000000	      0.50000000	      0.00000000	      0.25000000	     91.94877382	     -6.61531765	     -6.21920348	     94.56233009	      1.65042401	     20.30804516	     -2.71438976	      0.00000000	      0.00000000	     49.96613656	    -13.28936326	     -2.43050090	     56.74814940	      0.99044205	     21.50767954	      5.84765843	      0.00000000	      0.00000000	    -45.41105373	      5.75972094	      8.30569525	     89.38848190	    -10.22757981	     35.38349858	     28.79063991	     27.89255354	      0.00000000	      0.00000000	     89.49193210	     -0.43738598	     38.55680648	     19.98453340	     24.43559957	      0.00000000	      0.00000000
